<svg xmlns="http://www.w3.org/2000/svg" width="1200" height="680">
<style>text{font-family:Arial,sans-serif} .axis{stroke:#333;stroke-width:1} .grid{stroke:#ddd;stroke-width:1}</style>
<text x="600.0" y="28" text-anchor="middle" font-size="20">Average Persisted Index Size</text>
<text x="20" y="340.0" transform="rotate(-90 20 340.0)" text-anchor="middle" font-size="14">Size (bytes)</text>
<line class="axis" x1="80" y1="540" x2="1170" y2="540"/>
<line class="axis" x1="80" y1="60" x2="80" y2="540"/>
<line class="grid" x1="80" y1="540.0" x2="1170" y2="540.0"/>
<text x="72" y="544.0" text-anchor="end" font-size="11">0.0</text>
<line class="grid" x1="80" y1="444.0" x2="1170" y2="444.0"/>
<text x="72" y="448.0" text-anchor="end" font-size="11">2150165.0</text>
<line class="grid" x1="80" y1="348.0" x2="1170" y2="348.0"/>
<text x="72" y="352.0" text-anchor="end" font-size="11">4300329.9</text>
<line class="grid" x1="80" y1="252.0" x2="1170" y2="252.0"/>
<text x="72" y="256.0" text-anchor="end" font-size="11">6450494.8</text>
<line class="grid" x1="80" y1="156.0" x2="1170" y2="156.0"/>
<text x="72" y="160.0" text-anchor="end" font-size="11">8600659.8</text>
<line class="grid" x1="80" y1="60.0" x2="1170" y2="60.0"/>
<text x="72" y="64.0" text-anchor="end" font-size="11">10750824.8</text>
<rect x="98.2" y="368.7" width="84.8" height="171.3" fill="#2E6F95"/>
<text x="140.6" y="558" text-anchor="middle" font-size="10" transform="rotate(25 140.6 558)">B+ Tree</text>
<text x="140.6" y="363.7" text-anchor="middle" font-size="9">3836811.0</text>
<rect x="219.3" y="384.3" width="84.8" height="155.7" fill="#2E6F95"/>
<text x="261.7" y="558" text-anchor="middle" font-size="10" transform="rotate(25 261.7 558)">B-Tree</text>
<text x="261.7" y="379.3" text-anchor="middle" font-size="9">3487545.0</text>
<rect x="340.4" y="381.6" width="84.8" height="158.4" fill="#2E6F95"/>
<text x="382.8" y="558" text-anchor="middle" font-size="10" transform="rotate(25 382.8 558)">Chained Hash</text>
<text x="382.8" y="376.6" text-anchor="middle" font-size="9">3547402.5</text>
<rect x="461.5" y="291.4" width="84.8" height="248.6" fill="#2E6F95"/>
<text x="503.9" y="558" text-anchor="middle" font-size="10" transform="rotate(25 503.9 558)">Extendible Hash</text>
<text x="503.9" y="286.4" text-anchor="middle" font-size="9">5567345.2</text>
<rect x="582.6" y="379.3" width="84.8" height="160.7" fill="#2E6F95"/>
<text x="625.0" y="558" text-anchor="middle" font-size="10" transform="rotate(25 625.0 558)">LSM Tree</text>
<text x="625.0" y="374.3" text-anchor="middle" font-size="9">3600167.0</text>
<rect x="703.7" y="347.4" width="84.8" height="192.6" fill="#2E6F95"/>
<text x="746.1" y="558" text-anchor="middle" font-size="10" transform="rotate(25 746.1 558)">Linear Hash</text>
<text x="746.1" y="342.4" text-anchor="middle" font-size="9">4314312.8</text>
<rect x="824.8" y="60.0" width="84.8" height="480.0" fill="#2E6F95"/>
<text x="867.2" y="558" text-anchor="middle" font-size="10" transform="rotate(25 867.2 558)">Radix Tree</text>
<text x="867.2" y="72.0" text-anchor="middle" font-size="9">10750824.8</text>
<rect x="945.9" y="417.2" width="84.8" height="122.8" fill="#2E6F95"/>
<text x="988.3" y="558" text-anchor="middle" font-size="10" transform="rotate(25 988.3 558)">Skip List</text>
<text x="988.3" y="412.2" text-anchor="middle" font-size="9">2750444.8</text>
<rect x="1067.1" y="317.6" width="84.8" height="222.4" fill="#2E6F95"/>
<text x="1109.4" y="558" text-anchor="middle" font-size="10" transform="rotate(25 1109.4 558)">Static Hash</text>
<text x="1109.4" y="312.6" text-anchor="middle" font-size="9">4980336.0</text>
</svg>