<svg xmlns="http://www.w3.org/2000/svg" width="1400" height="760">
<style>text{font-family:Arial,sans-serif} .axis{stroke:#333;stroke-width:1} .grid{stroke:#ddd;stroke-width:1}</style>
<text x="700.0" y="30" text-anchor="middle" font-size="21">RookDB vs Existing Benchmark Baselines (Latency Index)</text>
<text x="22" y="380.0" transform="rotate(-90 22 380.0)" text-anchor="middle" font-size="14">Normalized latency index (lower is better)</text>
<line class="axis" x1="90" y1="590" x2="1360" y2="590"/>
<line class="axis" x1="90" y1="70" x2="90" y2="590"/>
<line class="grid" x1="90" y1="590.0" x2="1360" y2="590.0"/>
<text x="82" y="594.0" text-anchor="end" font-size="11">0.0</text>
<line class="grid" x1="90" y1="486.0" x2="1360" y2="486.0"/>
<text x="82" y="490.0" text-anchor="end" font-size="11">39.4</text>
<line class="grid" x1="90" y1="382.0" x2="1360" y2="382.0"/>
<text x="82" y="386.0" text-anchor="end" font-size="11">78.9</text>
<line class="grid" x1="90" y1="278.0" x2="1360" y2="278.0"/>
<text x="82" y="282.0" text-anchor="end" font-size="11">118.3</text>
<line class="grid" x1="90" y1="174.0" x2="1360" y2="174.0"/>
<text x="82" y="178.0" text-anchor="end" font-size="11">157.8</text>
<line class="grid" x1="90" y1="70.0" x2="1360" y2="70.0"/>
<text x="82" y="74.0" text-anchor="end" font-size="11">197.2</text>
<text x="248.8" y="614" text-anchor="middle" font-size="12">insert_heavy</text>
<rect x="153.5" y="572.8" width="50.8" height="17.2" fill="#2E6F95"/>
<rect x="217.0" y="586.2" width="50.8" height="3.8" fill="#6A994E"/>
<rect x="280.5" y="587.8" width="50.8" height="2.2" fill="#BC4749"/>
<text x="566.2" y="614" text-anchor="middle" font-size="12">read_heavy</text>
<rect x="471.0" y="587.4" width="50.8" height="2.6" fill="#2E6F95"/>
<rect x="534.5" y="587.7" width="50.8" height="2.3" fill="#6A994E"/>
<rect x="598.0" y="586.9" width="50.8" height="3.1" fill="#BC4749"/>
<text x="883.8" y="614" text-anchor="middle" font-size="12">mixed</text>
<rect x="788.5" y="573.9" width="50.8" height="16.1" fill="#2E6F95"/>
<rect x="852.0" y="587.4" width="50.8" height="2.6" fill="#6A994E"/>
<rect x="915.5" y="587.4" width="50.8" height="2.6" fill="#BC4749"/>
<text x="1201.2" y="614" text-anchor="middle" font-size="12">range_query</text>
<rect x="1106.0" y="70.0" width="50.8" height="520.0" fill="#2E6F95"/>
<rect x="1169.5" y="587.6" width="50.8" height="2.4" fill="#6A994E"/>
<rect x="1233.0" y="586.4" width="50.8" height="3.6" fill="#BC4749"/>
<rect x="90" y="675" width="12" height="12" fill="#2E6F95"/>
<text x="108" y="685" font-size="11">RookDB (normalized p95)</text>
<rect x="220" y="675" width="12" height="12" fill="#6A994E"/>
<text x="238" y="685" font-size="11">BTree_Engine_Baseline</text>
<rect x="350" y="675" width="12" height="12" fill="#BC4749"/>
<text x="368" y="685" font-size="11">LSM_Engine_Baseline</text>
</svg>