<svg xmlns="http://www.w3.org/2000/svg" width="1400" height="760">
<style>text{font-family:Arial,sans-serif} .axis{stroke:#333;stroke-width:1} .grid{stroke:#ddd;stroke-width:1}</style>
<text x="700.0" y="30" text-anchor="middle" font-size="21">Raw P95 Latency by Workload (Measured Systems)</text>
<text x="22" y="380.0" transform="rotate(-90 22 380.0)" text-anchor="middle" font-size="14">P95 latency (microseconds)</text>
<line class="axis" x1="90" y1="590" x2="1360" y2="590"/>
<line class="axis" x1="90" y1="70" x2="90" y2="590"/>
<line class="grid" x1="90" y1="590.0" x2="1360" y2="590.0"/>
<text x="82" y="594.0" text-anchor="end" font-size="11">0.0</text>
<line class="grid" x1="90" y1="486.0" x2="1360" y2="486.0"/>
<text x="82" y="490.0" text-anchor="end" font-size="11">146.6</text>
<line class="grid" x1="90" y1="382.0" x2="1360" y2="382.0"/>
<text x="82" y="386.0" text-anchor="end" font-size="11">293.2</text>
<line class="grid" x1="90" y1="278.0" x2="1360" y2="278.0"/>
<text x="82" y="282.0" text-anchor="end" font-size="11">439.8</text>
<line class="grid" x1="90" y1="174.0" x2="1360" y2="174.0"/>
<text x="82" y="178.0" text-anchor="end" font-size="11">586.4</text>
<line class="grid" x1="90" y1="70.0" x2="1360" y2="70.0"/>
<text x="82" y="74.0" text-anchor="end" font-size="11">733.0</text>
<text x="248.8" y="614" text-anchor="middle" font-size="12">insert_heavy</text>
<rect x="142.9" y="580.4" width="42.3" height="9.6" fill="#2E6F95"/>
<rect x="195.8" y="587.3" width="42.3" height="2.7" fill="#6A994E"/>
<rect x="248.8" y="589.2" width="42.3" height="0.8" fill="#BC4749"/>
<rect x="301.7" y="589.9" width="42.3" height="0.1" fill="#7B2CBF"/>
<text x="566.2" y="614" text-anchor="middle" font-size="12">read_heavy</text>
<rect x="460.4" y="588.5" width="42.3" height="1.5" fill="#2E6F95"/>
<rect x="513.3" y="588.4" width="42.3" height="1.6" fill="#6A994E"/>
<rect x="566.2" y="589.5" width="42.3" height="0.5" fill="#BC4749"/>
<rect x="619.2" y="589.9" width="42.3" height="0.1" fill="#7B2CBF"/>
<text x="883.8" y="614" text-anchor="middle" font-size="12">mixed</text>
<rect x="777.9" y="581.1" width="42.3" height="8.9" fill="#2E6F95"/>
<rect x="830.8" y="588.3" width="42.3" height="1.7" fill="#6A994E"/>
<rect x="883.8" y="587.8" width="42.3" height="2.2" fill="#BC4749"/>
<rect x="936.7" y="589.9" width="42.3" height="0.1" fill="#7B2CBF"/>
<text x="1201.2" y="614" text-anchor="middle" font-size="12">range_query</text>
<rect x="1095.4" y="70.0" width="42.3" height="520.0" fill="#2E6F95"/>
<rect x="1148.3" y="589.0" width="42.3" height="1.0" fill="#6A994E"/>
<rect x="1201.2" y="588.8" width="42.3" height="1.2" fill="#BC4749"/>
<rect x="1254.2" y="nan" width="42.3" height="nan" fill="#7B2CBF"/>
<rect x="90" y="675" width="12" height="12" fill="#2E6F95"/>
<text x="108" y="685" font-size="11">RookDB</text>
<rect x="220" y="675" width="12" height="12" fill="#6A994E"/>
<text x="238" y="685" font-size="11">SQLite (B-tree)</text>
<rect x="350" y="675" width="12" height="12" fill="#BC4749"/>
<text x="368" y="685" font-size="11">SortedContainers (tree-like)</text>
<rect x="480" y="675" width="12" height="12" fill="#7B2CBF"/>
<text x="498" y="685" font-size="11">Python dict (hash-like)</text>
</svg>